<mxfile host="65bd71144e">
    <diagram id="80jTAW5A8BKvPbt2z6Pd" name="Page-1">
        <mxGraphModel dx="1348" dy="779" grid="1" gridSize="10" guides="1" tooltips="1" connect="1" arrows="1" fold="1" page="1" pageScale="1" pageWidth="850" pageHeight="1100" math="0" shadow="0">
            <root>
                <mxCell id="0"/>
                <mxCell id="1" parent="0"/>
                <mxCell id="14" value="" style="whiteSpace=wrap;html=1;fillColor=#E6E6E6;strokeColor=none;" vertex="1" parent="1">
                    <mxGeometry x="30" y="40" width="560" height="170" as="geometry"/>
                </mxCell>
                <mxCell id="6" value="&lt;font color=&quot;#ffffff&quot;&gt;API&lt;/font&gt;" style="whiteSpace=wrap;html=1;strokeColor=#FFFFFF;fillColor=#000066;" parent="1" vertex="1">
                    <mxGeometry x="150" y="50" width="40" height="150" as="geometry"/>
                </mxCell>
                <mxCell id="3" value="&lt;font color=&quot;#ffffff&quot;&gt;Data&lt;/font&gt;" style="whiteSpace=wrap;html=1;strokeColor=#FFFFFF;fillColor=#0074E6;" parent="1" vertex="1">
                    <mxGeometry x="270" y="80" width="80" height="40" as="geometry"/>
                </mxCell>
                <mxCell id="7" value="&lt;font color=&quot;#ffffff&quot;&gt;System&lt;/font&gt;" style="whiteSpace=wrap;html=1;strokeColor=#FFFFFF;fillColor=#000000;" parent="1" vertex="1">
                    <mxGeometry x="40" y="50" width="100" height="150" as="geometry"/>
                </mxCell>
                <mxCell id="8" value="&lt;font color=&quot;#ffffff&quot;&gt;API&lt;/font&gt;" style="whiteSpace=wrap;html=1;strokeColor=#FFFFFF;fillColor=#000066;" parent="1" vertex="1">
                    <mxGeometry x="430" y="50" width="40" height="150" as="geometry"/>
                </mxCell>
                <mxCell id="9" value="&lt;font color=&quot;#ffffff&quot;&gt;System&lt;/font&gt;" style="whiteSpace=wrap;html=1;strokeColor=#FFFFFF;fillColor=#000000;" parent="1" vertex="1">
                    <mxGeometry x="480" y="50" width="100" height="150" as="geometry"/>
                </mxCell>
                <mxCell id="12" value="" style="endArrow=classic;startArrow=none;html=1;fillColor=#a20025;strokeColor=#6F0000;strokeWidth=3;endSize=3;startSize=3;startFill=0;exitX=1;exitY=0.5;exitDx=0;exitDy=0;entryX=0;entryY=0.5;entryDx=0;entryDy=0;" parent="1" source="6" target="8" edge="1">
                    <mxGeometry width="50" height="50" relative="1" as="geometry">
                        <mxPoint x="190" y="89.5" as="sourcePoint"/>
                        <mxPoint x="319" y="89.5" as="targetPoint"/>
                    </mxGeometry>
                </mxCell>
                <mxCell id="13" value="" style="endArrow=classic;startArrow=none;html=1;fillColor=#a20025;strokeColor=#6F0000;strokeWidth=3;endSize=3;startSize=3;startFill=0;entryX=1;entryY=0.5;entryDx=0;entryDy=0;exitX=0;exitY=0.5;exitDx=0;exitDy=0;" parent="1" source="8" target="6" edge="1">
                    <mxGeometry width="50" height="50" relative="1" as="geometry">
                        <mxPoint x="350" y="-40" as="sourcePoint"/>
                        <mxPoint x="440" y="100" as="targetPoint"/>
                    </mxGeometry>
                </mxCell>
            </root>
        </mxGraphModel>
    </diagram>
</mxfile>